<svg xmlns="http://www.w3.org/2000/svg" height="2303" width="5055" viewBox="0 -1024 5055 2303">
 <path id="path6" d="m3714 372q30-62 61-108t70-82.5 88.5-68 115.5-63.5q11-30 22.5-56.5t25.5-52.5q31-57 58-100t54.5-76.5 58.5-60.5 70-52q32-21 68.5-32t67.5-11q20 0 35 6t26 14q16 12 25.5 16t20.5 4q36 0 60.5-21t37.5-55l20-1q11 16 27 23t32 7q28 0 44.5-18t22.5-48l24-1q3 4 4 12 5 5 15 9t22 4q28 0 40.5-18.5t18.5-66.5q2-20 4.5-50t3.5-68q1-27 5.5-49t13.5-44 23-45.5 32-52.5l24 8q-2 10-3.5 18t-3 17.5-3 22.5-2.5 32q-2 29-4.5 51.5t-5 40-5 31.5-5.5 26q-9 42-19.5 74t-19.5 53q-8 20-20.5 44.5t-29 46-37 36-45.5 14.5q-8 0-17-2t-23-12q-17 23-37.5 39t-52.5 16q-20 0-35.5-7.5t-26.5-17.5q-24 32-51.5 52.5t-65.5 20.5q-21 0-34-6t-24-15q-14-13-28.5-16t-30.5-3q-40 0-74 13t-63 34.5-53 49.5-44 58q20 4 43 11t44 15q44 18 44 46 0 16-9.5 44t-24.5 58-34 56.5-38 38.5q-5 3-12.5 6.5t-23.5 6.5q-54 10-115 25t-117 39.5-103 59.5-72 86q-12 24-22 48.5t-18 66.5-16 110.5-16 181.5q-4 51-8 118.5t-7.5 136.5-7.5 132.5-8 107.5h-40q-2-54-2.5-114t-.5-116q0-98 1.5-191t9.5-178.5 25.5-163 49.5-144.5zm-74-532q42 0 67-24t30-60q1-10 1.5-24t1-27.5.5-24.5v-16q0-45 14-100.5t52-121.5l22 9q-5 20-8.5 46t-5.5 64q-4 57-8 104t-10.5 88-18 77-29.5 71q-26 50-67 84.5t-93 34.5q-29 0-55-10t-45-39q-21 35-61 61t-97 26q-67 0-105-32t-48-86q-23 20-50 42.5t-56 45-57 43.5-52 37l-18-19q24-23 54.5-53.5t63-64.5 65-69 61-66 50.5-56.5 34-40.5l19 7q-3 18-3 35 0 48 24 72.5t63 24.5q55 0 92.5-41t60.5-129l27 4q-1 7-1 12v11q0 48 20.5 76.5t65.5 28.5zm-190-586q0-27 10-47l15-2v5q3 19 10.5 26.5t20.5 7.5q23 0 36.5-17t24.5-61l18-3q6 11 16.5 15.5t19.5 4.5q19 0 29-15.5t16-59.5l20-3v12q0 52-22 88t-67 36q-7 0-15-2.5t-13-6.5q-14 33-32.5 51.5t-44.5 18.5q-23 0-32.5-15t-9.5-33zm-704 69q1-42 5-76.5t12-68.5q4-17 8-35t11-40 17.5-50 27.5-66l24 9q-5 22-8.5 60.5t-5.5 88.5l-5 190q-1 45-5.5 91.5t-10.5 89.5-12.5 80-11.5 64q-3 17-8 38t-11 42-13 40.5-14 33.5q-12 25-27.5 47t-35.5 39q-14 11-25.5 19.5t-25.5 16.5q-20 11-36 21.5t-33 21.5q-26 17-40.5 34.5t-25.5 39.5l-40 76q-14 26-26 46t-24.5 36.5-25.5 30-28 26.5q-15 8-42.5 14.5t-60.5 12-68.5 9-66.5 6.5l-2-26q28-14 63.5-33.5t72-40.5 71-43.5 60.5-42.5q19-16 33-31t31-47l29-54q19-36 34-61.5t29.5-44 30-31 36.5-23.5q26-14 46-24.5t37-23.5q23-17 32.5-38.5t14.5-47.5q4-20 6.5-48.5t2.5-49.5zm-1944 407q-43 0-78.5 12t-65 33-54 49.5-45.5 60.5q20 4 45.5 11t46.5 15q44 18 44 46 0 16-9.5 44t-24.5 58-34 56.5-38 38.5q-5 3-12.5 6.5t-23.5 6.5q-54 10-115 25t-117 39.5-103 59.5-72 86q-12 24-22 48.5t-18 66.5-16 110.5-16 181.5q-4 51-8 118.5t-7.5 136.5-7.5 132.5-8 107.5h-40q-2-54-2.5-114t-.5-116q0-98 1.5-191t9.5-178.5 25.5-163 49.5-144.5q30-62 61-108t70-82.5 88.5-68 115.5-63.5q3-8 8.5-22.5t12.5-30 13.5-29.5 11.5-22q1-1 1-2t1-3q29-54 68-112.5t86.5-107 102-80.5 114.5-32q23 0 38.5 7t24.5 14q19 15 31.5 20t28.5 5q30 0 56-7t51.5-20 50.5-31.5 53-42.5l88-75q-25-8-66.5-24t-85.5-33q-26-10-44.5-14.5t-41.5-4.5q-22 0-43 7.5t-36 34.5l-29-10q38-76 81-106t94-30q24 0 53 8 13 4 30.5 10.5t36 14 36.5 15.5 32 15q32 16 61 27t46 13l2 14q-5 4-21.5 19t-37 34-41 39-33.5 33l-75 76q-34 34-64.5 63t-61 50.5-62 33.5-66.5 12q-21 0-37.5-8t-31.5-19-31-15-24-4zm3990 188v-10q10-15 25-32.5t29.5-33.5 27-28 17.5-15h10q44 28 66.5 50t22.5 46q0 12-8 25.5t-21 27.5-30 28-35 27h-10q-7-7-19-18.5t-25.5-24-26.5-23.5-23-19zm-142-587q-3 1-15 3.5t-29 5.5-36 6-34 4l-2-17q30-8 58-17t50.5-18 37.5-16 19-12v-3q-12-4-27-8.5t-31-8-30.5-5.5-25.5-2q-13 0-21.5 3.5t-14.5 8.5l-12-6q10-24 20.5-38.5t20-22 18-9.5 14.5-2q22 0 63.5 7.5t101.5 33.5l4 17q-3 6-18.5 20t-35.5 29-41 28.5-34 18.5zm-706 513q2-9 4.5-30t5.5-49.5 5.5-63.5 4.5-72l11-283q2-42 5.5-84.5t11.5-76.5 25.5-83 52.5-126l24 9q-8 19-13 54t-9 80-6.5 96-5.5 100l-12 221q-4 72-25 154.5t-54 159.5zm-993 1q2-9 4.5-30t5.5-49.5 5.5-63.5 4.5-72l11-283q2-42 5.5-84.5t11.5-76.5 25.5-83 52.5-126l24 9q-8 19-13 54t-9 80-6.5 96-5.5 100l-12 221q-4 72-25 154.5t-54 159.5zm-1772 621v-10q10-15 25-32.5t29.5-33.5 27-28 17.5-15h10q44 28 66.5 50t22.5 46q0 12-8 25.5t-21 27.5-30 28-35 27h-10q-7-7-19-18.5t-25.5-24-26.5-23.5-23-19zm1145-1263q0-27 10-47l15-2v5q3 19 10.5 26.5t20.5 7.5q23 0 36.5-17t24.5-61l18-3q6 11 16.5 15.5t19.5 4.5q19 0 29-15.5t16-59.5l20-3v12q0 52-22 88t-67 36q-7 0-15-2.5t-13-6.5q-14 33-32.5 51.5t-44.5 18.5q-23 0-32.5-15t-9.5-33zm-556 642q2-9 4.5-30t5.5-49.5 5.5-63.5 4.5-72l11-283q2-42 5.5-84.5t11.5-76.5 25.5-83 52.5-126l24 9q-8 19-13 54t-9 80-6.5 96-5.5 100l-12 221q-4 72-25 154.5t-54 159.5zm-1435 683v-10q10-15 25-32.5t29.5-33.5 27-28 17.5-15h10q28 18 47 33.5t30 29.5q11-13 23.5-27t23.5-25.5 20-20 14-11.5h10q44 28 66.5 50t22.5 46q0 23-27.5 52.5t-63.5 55.5h-10q-12-11-32-30t-40-36q-11 21-35.5 43.5t-53.5 43.5h-10q-7-7-19-18.5t-25.5-24-26.5-23.5-23-19zm4495-128q12-7 31-18.5t41.5-24 44.5-24.5 40-22l31.5-18t25.5-16l10 6q-12 32-27.5 48.5t-35.5 27.5l-158 86q-20 11-35.5 21t-24.5 20l-8-6q8-32 24.5-48t40.5-32zm-839 278q12-7 31-18.5t41.5-24 44.5-24.5 40-22l31.5-18t25.5-16l10 6q-12 32-27.5 48.5t-35.5 27.5l-158 86q-20 11-35.5 21t-24.5 20l-8-6q8-32 24.5-48t40.5-32zm-2749-1560q12-7 31-18.5t41.5-24 44.5-24.5 40-22l31.5-18t25.5-16l10 6q-12 32-27.5 48.5t-35.5 27.5l-158 86q-20 11-35.5 21t-24.5 20l-8-6q8-32 24.5-48t40.5-32zm323 205q1-42 5-76.5t12-68.5q4-17 8-35t11-40 17.5-50 27.5-66l24 9q-5 22-8.5 60.5t-5.5 88.5l-5 190q-1 45-5.5 91.5t-10.5 89.5-12.5 80-11.5 64q-3 17-8 38t-11 42-13 40.5-14 33.5q-12 25-27.5 47t-35.5 39q-14 11-25.5 19.5t-25.5 16.5q-20 11-36 21.5t-33 21.5q-26 17-40.5 34.5t-25.5 39.5l-40 76q-14 26-26 46t-24.5 36.5-25.5 30-28 26.5q-12 6-31 11.5t-42.5 10-50 8-53.5 6.5q-35 84-49 147.5t-14 116.5q0 129 70.5 192.5t195.5 63.5q97 0 165.5-33.5t114.5-82 71.5-102 36.5-93.5q13-48 20.5-89t11.5-84 5.5-92 1.5-112l18-6q17 3 37.5 5t34.5 2q50 0 106-28.5t101-87.5q36-48 58-73.5t40-36.5q3-13 8.5-28t11.5-26q22-44 51-76.5t63.5-57 72.5-43.5 78-36l125-54q-21-9-49-16t-57-11.5-56.5-7-48.5-2.5q-35 0-62.5 10t-53.5 42l-27-12q35-71 83-111.5t117-40.5q9 0 17.5.5t16.5 1.5q30 3 67.5 10.5t73 17.5 64 21 42.5 21l1 8q-18 35-44.5 65t-53.5 47q-29 19-59 34t-68 32q-97 43-158 77t-77 60q-5 8-6 14.5t-1 9.5q0 17 25 30 18 10 31 17t21 14 11.5 14.5 3.5 17.5q0 14-8.5 36.5t-22 43.5-31 36-35.5 15q-14 0-41-14-20-11-33-15t-28-4q-8 0-15.5 2t-20 11.5-33.5 29-55 54.5q-26 27-47.5 47.5t-42.5 34.5-43.5 21-49.5 7h-5q-2 67-11 131t-26 132q-25 99-68 190.5t-104 162-141 112.5-179 42q-71 0-124.5-23t-89.5-62.5-54.5-93-18.5-113.5q0-115 24.5-217.5t74.5-210.5l-21 2-2-26q28-14 63.5-33.5t72-40.5 71-43.5 60.5-42.5q19-16 33-31t31-47l29-54q19-36 34-61.5t29.5-44 30-31 36.5-23.5q26-14 46-24.5t37-23.5q23-17 32.5-38.5t14.5-47.5q4-20 6.5-48.5t2.5-49.5zm-1089 1801q2-10 5-40t5-68l3-76q1-21 2-42.5t6-38.5q4-17 12.5-43t26.5-61l12 4q-4 9-6.5 27t-4.5 40.5-3.5 47.5-2.5 50l-3 46q-2 36-12 77.5t-27 79.5z" fill="currentColor"/>
</svg>
